<svg xmlns="http://www.w3.org/2000/svg" xmlns:xlink="http://www.w3.org/1999/xlink" viewBox="0 0 390.69 584.36"><defs><style>.cls-1{fill:#37b24d;}.cls-2{fill:#fff;}</style><symbol id="New_Symbol_1" data-name="New Symbol 1" viewBox="0 0 390.69 584.36"><path class="cls-1" d="M390.68,194.19C391,249.67,356,292,332,338L196.19,582.8l-.85,1.56-.85-1.56L56,336C30.8,289.36-.36,249.67,0,194.19.7,87.14,88.39.3,195,0h.68C302.29.3,390,87.14,390.68,194.19Z"/><path class="cls-2" d="M75.49,188.92,57.85,177.59l62-7.1L142,228.21l-17.45-11c-17,27.6-32.67,59.93-22.74,90.73-28.76-24.38-44.88-43.12-44.88-65.76C56.93,225.8,67.55,203.77,75.49,188.92Zm46.62,64.64c-8.77,10.7-11.52,33.18-8.66,46.78A13.46,13.46,0,0,0,126.63,311h56.7V253.56Zm123,59.48v21l-38.72-49,38.72-49.2v20.65c32.44-.06,66.63-3.83,87.59-28.49-5.57,37.3-13,60.88-32.24,72.81C286.59,309.37,261.94,312,245.13,313Zm30.71-73.69c13.7,1.81,34.26-7.69,44.32-17.3a13.45,13.45,0,0,0,2.13-16.82l-29.87-48.17-48.84,30.27ZM265.07,106.5l18.5-9.87-24.1,57.61-61.17-8.87,18.15-9.83c-15.77-28.35-36.34-57.78-68.09-64.16,21.88-8.17,39.51-13.17,54.44-13.17C228.51,58.21,243.48,72.75,265.07,106.5Zm-79.16,9.13c-5.06-12.87-23.34-26.25-36.62-30.39a13.45,13.45,0,0,0-15.75,6.28L105.87,141l50.15,28Z"/></symbol></defs><g id="Layer_2" data-name="Layer 2"><g id="Layer_1-2" data-name="Layer 1"><use width="390.69" height="584.36" xlink:href="#New_Symbol_1"/></g></g></svg>