<svg xmlns="http://www.w3.org/2000/svg" xmlns:xlink="http://www.w3.org/1999/xlink" viewBox="0 0 721 721"><defs><style>.cls-1{fill:#37b24d;}</style><symbol id="New_Symbol" data-name="New Symbol" viewBox="0 0 721 721"><path class="cls-1" d="M629.43,0H91.57A91.57,91.57,0,0,0,0,91.57V629.43A91.57,91.57,0,0,0,91.57,721H629.43A91.57,91.57,0,0,0,721,629.43V91.57A91.57,91.57,0,0,0,629.43,0ZM496.5,412.5,360.69,657.3l-.85,1.56L359,657.3,220.5,410.5c-25.2-46.64-56.36-86.33-56-141.81.7-107,88.39-193.89,195-194.19h.68c106.61.3,194.3,87.14,195,194.19C555.54,324.17,520.5,366.5,496.5,412.5Z"/><path class="cls-1" d="M289.05,291.67l17.44,11L284.38,245l-62,7.1L240,263.42c-7.94,14.85-18.56,36.88-18.56,53.22,0,22.64,16.13,41.38,44.89,65.76C256.38,351.6,272,319.27,289.05,291.67Z"/><path class="cls-1" d="M278,374.84a13.45,13.45,0,0,0,13.18,10.68h56.7V328.06H286.6C277.83,338.76,275.09,361.24,278,374.84Z"/><path class="cls-1" d="M440.33,313.85c13.71,1.81,34.27-7.69,44.32-17.3a13.43,13.43,0,0,0,2.14-16.82l-29.88-48.17-48.83,30.27Z"/><path class="cls-1" d="M409.63,331V310.31l-38.73,49.2,38.73,49v-21c16.81-1.08,41.46-3.67,55.35-12.26,19.24-11.93,26.67-35.51,32.23-72.81C476.25,327.13,442.07,330.9,409.63,331Z"/><path class="cls-1" d="M313.79,159.74A13.44,13.44,0,0,0,298,166l-27.67,49.5,50.14,28,29.89-53.44C345.35,177.26,327.06,163.88,313.79,159.74Z"/><path class="cls-1" d="M424,228.74l24.1-57.61L429.56,181C408,147.25,393,132.71,367.29,132.71c-14.92,0-32.55,5-54.43,13.17,31.75,6.38,52.32,35.81,68.09,64.16l-18.15,9.83Z"/></symbol></defs><g id="Layer_2" data-name="Layer 2"><g id="Layer_1-2" data-name="Layer 1"><use width="721" height="721" xlink:href="#New_Symbol"/></g></g></svg>