<svg xmlns="http://www.w3.org/2000/svg" viewBox="0 0 847.2 1000"><defs><style>.cls-1{fill:none;}</style></defs><g id="Layer_2" data-name="Layer 2"><g id="Layer_1-2" data-name="Layer 1"><path d="M337.77,25c-.93,2.13-1.66,19.31-1.78,38.21,0,27-1.23,36.08-6,42.9-7.17,10.91-5.28,22.26,5.43,29.63,6,4.35,7.81,7.22,7.53,13.78-.09,7.91-.85,8.69-10.81,13.85-5.94,3-18.74,11.45-28.28,18.91-43.89,34.17-69.77,86.23-72.8,146.45-2.13,40.53,1.11,65.37,9.71,73.74,2.73,2.66,2,6.53-2.68,14.89-5.27,9.33-6.31,18.22-5.88,49.07.38,27.38,1.91,40.29,6.46,48.52,4.77,9.19,4.81,12.66,1.26,20.62-9.19,19.22-9,76.5.38,96.62,4.77,10.35,4.81,13.44.14,24.11-4.48,10.47-5.32,33.64-4.13,133,.54,66.35,1.93,124.77,2.77,129.78,5.67,32.52,46.66,53.74,121.05,63.31,112.26,14.45,236.34-9.85,261.42-50.9,7.74-12.26,8.17-22.88,6-149.76-1.73-96.8-3-117.81-8.18-130.47-5.2-13-5.43-16.32-1.28-22.93,3.59-5.26,4.75-19,4.55-47.32-.06-32-1.16-41.84-6.3-50.26-3.35-5.54-5-11.31-3.64-12.67,13.31-13.69,13.78-90.47.6-109.38-3.74-5.54-3.79-8.24.37-14.47,10.39-15.76,9.32-78.44-1.81-115.89-15-49.95-54.59-97.61-97.69-117.46-10.28-4.68-10.88-5.63-11.18-13.53-.28-6.36,1.21-9.86,5.23-12.42,9.18-5.53,12.91-14.84,9.5-24.25-1.61-5-4.37-9.58-5.94-10.33-1.93-.75-3.72-18.08-4-38.51-.62-31-1.88-38-7-42.92-5.48-5.32-15.13-6-79-4.88-39.92.75-74.8,2.58-77.48,4.16S338.7,22.82,337.77,25ZM465.39,74.87l.3,21.22-43.2.6-43.58.61-.29-21.22-.3-21.22,43.2-.6,43.58-.61ZM462.91,160c.55,12,1.47,22.36,2.24,23.12s10.49,5.64,21.37,10.5c17.85,7.85,22.92,11.63,43.65,31.79,27.57,26.81,36.86,43.08,44.48,77.5,5.78,26.92,5.78,68.39-.31,74.65-3,3.13-22.89,4.76-70.72,5.43-58.23.81-66.71,1.69-72.23,7.36-4.37,4.5-5.84,9.15-5.37,16.09,1.81,18.88,5.49,19.79,79.35,19,58.82-.63,68.86,0,71.83,4.79,4.54,7.46,4.51,61.08-.05,65.77-1.91,2-33.32,4.13-71.12,4.66-73.47,1.22-77.12,2.23-78.4,21.15-.28,7.33,1.12,11.37,6.2,15.92,6.06,5.51,14.55,6.16,72.41,5.36,49.75-.69,67.12.21,70.84,3.83,3.33,3.23,4.81,13,5.28,32.53.76,40.68,3.24,39.3-76.58,40.8-54.77.76-66.72,2.08-71.28,6.77-7.41,7.63-7.41,21.33.21,28.74,5.09,4.94,15.32,5.77,72,5,53.41-.55,67.3,0,71.61,4.22,4.5,4.37,5.58,26.34,6.94,124.31,1.34,96,.71,120.16-3.29,124.26-7.6,7.82-48.5,20.93-79.68,26-35.42,5.51-101,6.42-136.53,1.9-31.5-4-72.56-16.15-80.38-23.76-4.1-4-5.6-27.88-6.76-125.66-.73-66.15-.35-121.7,1.17-123.27s7.28-4,12.47-5c12.5-2.68,18.77-9.52,19-20.33.24-10.42-7.4-18.61-20.55-21.51-5.42-1.08-10.86-4.09-12.05-6.39s-2.36-16.75-2.75-32c-.79-28.54,3.12-38.43,14.71-37.43,3.09.33,8.44-2.83,12.44-6.93,13.12-13.49,5.71-33.26-13-35.12-13.33-1.54-15.93-7.87-15.8-40.09,0-28.93,2.21-34.75,12.81-35.48,3.28-.24,9-2.64,13-5.2,14.71-10,6.63-36.54-11.32-37.26-12.93-.39-16.31-8.26-16-37.19-.09-34.33,3.32-53.09,13-76.37,6.9-16.49,10.31-21.17,31.22-43.06,21.11-21.71,25.88-25.44,43.13-33.78,22.6-10.74,24.11-13.45,23.57-38.33l-.63-17.35,39.53-.74,39.34-.55Z"/><rect class="cls-1" width="847.2" height="1000"/></g></g></svg>